<svg id="Layer_1" data-name="Layer 1" xmlns="http://www.w3.org/2000/svg" viewBox="0 0 564.67 143.11"><defs><style>.cls-1{fill:#0f5597;}.cls-2{fill:#105597;}.cls-3{fill:#7aa1c5;}</style></defs><title>logosvg</title><path class="cls-1" d="M79.33,153.14a5,5,0,0,1-.68-1.37L18.57,12.52a4,4,0,0,1-.39-1c-.08-.54.83-1.12,1.37-.87a6.23,6.23,0,0,1,2.28,1.74Q37.19,30.65,52.59,48.89c7,8.24,14.07,16.38,21.1,24.58,1.11,1.29,2.18,2.63,3.26,4,2.09,2.56,3,2.61,5.11.19C92.41,66,102.81,54.44,112.81,42.53c7.8-9.3,16.07-18.19,24.23-27.17a4.74,4.74,0,0,1,3.55-2,5.35,5.35,0,0,1-.3,3.43c-10.24,23.29-20.07,46.75-30.62,69.91-9.26,20.34-18,40.9-26.82,61.44A11.17,11.17,0,0,1,79.33,153.14Z" transform="translate(-18.17 -10.15)"/><path class="cls-1" d="M408.65,90.08a4.89,4.89,0,0,0-1.75-1.75,10.27,10.27,0,0,1-4.42-5.64C401,79,399.67,75.18,398,71.55c-2.69-5.65-5.34-11.33-8-17-1.08-2.28-1.08-2.26,1.23-3.27a19.76,19.76,0,0,0,11.26-11.72,21.62,21.62,0,0,0,1-10.9c-1.16-7.16-5.06-12.13-11.93-14.65a30.54,30.54,0,0,0-10.08-1.53c-8.12-.11-16.24-.15-24.37-.22v.12H336.68c-1.9,0-3.79,0-5.68,0-2.86.09-4.12,2.18-2.89,4.77a6.28,6.28,0,0,0,2.65,2.91,5.69,5.69,0,0,1,3.06,5.21c0,.33,0,.65,0,1q0,25.68,0,51.34c0,1.62,0,3.23,0,4.85a5.83,5.83,0,0,1-3.69,5.66,4.1,4.1,0,0,0-1.75,1.32,3.84,3.84,0,0,0-.5,3.92,3.27,3.27,0,0,0,3,2.11,12.8,12.8,0,0,0,1.52.05h24.1a6,6,0,0,0,1.78-.18A3.17,3.17,0,0,0,360.58,91a3.7,3.7,0,0,0-1.1-1.72A6.79,6.79,0,0,0,357.37,88a4.38,4.38,0,0,1-3-4.64c.05-1.57.08-3.14.12-4.71q.19-8.5.38-17c0-1.22,0-1.21,1.31-1.36,3.44-.39,6.87-.79,10.31-1.2,1.75-.21,2.22,0,3.06,1.65,3.55,6.88,7.08,13.77,10.41,20.76a13.91,13.91,0,0,1,.82,2,3.89,3.89,0,0,1-2,4.9c-.29.16-.59.28-.86.45a3.22,3.22,0,0,0-1.36,3.39c.18,1.41.69,2.58,2.22,3a7.5,7.5,0,0,0,2.06.19h23.95a9.05,9.05,0,0,0,1.38-.07A3.48,3.48,0,0,0,408.65,90.08ZM382.41,37.27a12.4,12.4,0,0,1-7.63,8.7,39.46,39.46,0,0,1-8.14,2.11c-3.12.59-6.26,1.1-9.39,1.63-2.23.38-2.28.31-2.35-2-.11-3.41-.24-6.82-.36-10.22a96.91,96.91,0,0,1,0-10.78c.34-4,2-5.69,6-5.6,4.46.11,8.95-.1,13.38.71a12.48,12.48,0,0,1,4.5,1.66,9.42,9.42,0,0,1,4.35,7.2A17.64,17.64,0,0,1,382.41,37.27Z" transform="translate(-18.17 -10.15)"/><path class="cls-1" d="M516.47,34.81a1.72,1.72,0,0,0-.22,1.15q0,13.56,0,27.13,0,8.16,0,16.33c0,1,.07,2,.14,3a5,5,0,0,0,2.12,3.87,35.73,35.73,0,0,0,3.78,2.55,5.81,5.81,0,0,1,1.37.93,3.38,3.38,0,0,1,1,3.55,3.08,3.08,0,0,1-2.7,2.08,9.14,9.14,0,0,1-1.39,0l-19.94,0c-.41,0-.83,0-1.24,0A3,3,0,0,1,496.26,93a3.69,3.69,0,0,1,1.58-4.35,8.92,8.92,0,0,1,1.68-.63A10.15,10.15,0,0,0,502,86.9a5.37,5.37,0,0,0,2.46-3.84,17,17,0,0,0,.2-2.48q0-26.22,0-52.45a29,29,0,0,0-.19-3.73,4,4,0,0,0-2.1-3.22c-.8-.45-1.64-.85-2.47-1.24a7,7,0,0,1-2.2-1.41,3.62,3.62,0,0,1-1-3.93,3.42,3.42,0,0,1,3.11-2.17,10.6,10.6,0,0,1,1.38,0h14.13c1.06,0,2.12-.15,3.18-.13a12.46,12.46,0,0,1,9.83,5.15c1.62,2.07,3.21,4.16,4.82,6.24,10.28,13.4,20.41,26.9,29.84,40.92.27.41.44,1.22,1.15.94.54-.22.27-.91.27-1.39q0-15.57,0-31.14c0-1.94-.08-3.87-.13-5.81a6.23,6.23,0,0,0-2.72-5.45c-1-.63-1.85-1.37-2.76-2.08a10.24,10.24,0,0,1-1.37-1.16,3.61,3.61,0,0,1-.75-3.86A3.39,3.39,0,0,1,560,12.43c1-.06,1.94,0,2.91,0,5.26-.07,10.53,0,15.79,0,2,0,3.11,1.14,3.94,2.73a3,3,0,0,1,0,2.16,4.06,4.06,0,0,1-2.75,3.3c-2.74.95-3.85,3.16-3.9,5.93,0,2.13,0,4.25,0,6.37q0,26.85,0,53.7a33.49,33.49,0,0,1-.63,5.91,4.35,4.35,0,0,1-4.14,4c-5.54.85-10.09-.68-13.35-5.49-5.39-7.94-11-15.74-16.58-23.53-7.43-10.35-14.89-20.66-23-30.49C517.71,36.29,517.12,35.59,516.47,34.81Z" transform="translate(-18.17 -10.15)"/><path class="cls-1" d="M427.93,12.39H439.7a12.27,12.27,0,0,1,2.33.23c3.3.65,4.36,5.43,2.05,7.54a7,7,0,0,1-1.81,1.27c-2.79,1.25-4,3.55-4.28,6.45-.37,4.28-.75,8.55-1,12.83-.4,5.93-.75,11.88-.87,17.83a56.66,56.66,0,0,0,1.65,16,18.77,18.77,0,0,0,5.94,9.78,17.43,17.43,0,0,0,10.65,4.1,27,27,0,0,0,9.45-1,17.89,17.89,0,0,0,12.46-15.29c.69-7.82.83-15.66.8-23.5A125.61,125.61,0,0,0,475.55,32q-.41-2.94-.66-5.91a5.71,5.71,0,0,0-2.3-4.24c-.8-.61-1.68-1.13-2.51-1.71a6.09,6.09,0,0,1-2.43-2.76c-1-2.56.3-4.71,3.05-4.93,1.47-.11,2.95-.06,4.43-.07H489a5.58,5.58,0,0,1,2.18.32,2.49,2.49,0,0,1,1.71,2.43,8.42,8.42,0,0,1-.43,2.86A2.86,2.86,0,0,1,491,19.74c-2.88,1.47-3.87,4-3.61,7,.22,2.52.56,5,.83,7.56.16,1.42.34,2.84.4,4.27.31,7.37.95,14.73,1,22.11,0,5,.06,10-1.16,14.85a26.52,26.52,0,0,1-15.9,18.81,36.71,36.71,0,0,1-12.83,3.12c-3.88.2-7.74.54-11.62.4a42.41,42.41,0,0,1-16-3.23,29.91,29.91,0,0,1-8.46-5.43,26.24,26.24,0,0,1-7.5-13.91,64.92,64.92,0,0,1-1-19.27c.41-5.33,1-10.65,1.26-16,.23-4.28.53-8.56.79-12.84a13.14,13.14,0,0,0,0-1.66,4.88,4.88,0,0,0-2.64-4.12c-.4-.22-.83-.4-1.23-.64a4.44,4.44,0,0,1-2.13-5.33,4,4,0,0,1,3.85-3c1-.07,2,0,3,0Z" transform="translate(-18.17 -10.15)"/><path class="cls-1" d="M324.9,89.67a14.47,14.47,0,0,0-1.84-2.06A14.23,14.23,0,0,1,319.6,82c-1.77-5.38-3.67-10.72-5.49-16.08a318.06,318.06,0,0,0-12.7-32.86c-2.72-5.8-5.6-11.52-8.34-17.31-2.83-6-12-8.06-16.55-1.87q-1.36,1.83-2.57,3.77a122.71,122.71,0,0,0-9.41,19.53c-4.67,11.88-8.77,24-13,36-1.16,3.3-2.33,6.6-3.55,9.88a10.46,10.46,0,0,1-3.78,5.34,4.93,4.93,0,0,0-2.13,4.65,2.22,2.22,0,0,0,1.48,2.12,5.85,5.85,0,0,0,2.45.33l13.16,0c1.06,0,2.12,0,3.18,0A2.75,2.75,0,0,0,265,93.75a3.91,3.91,0,0,0-.68-4.26,7.79,7.79,0,0,0-1.62-1.29c-2.33-1.56-3.08-3.43-2.2-6.08,1.29-3.94,2.32-8,3.45-11.94.32-1.14.33-1.15,1.46-1.15h12.05c3.87-.06,7.75.1,11.62-.3a9.56,9.56,0,0,1,2.2.16,4.07,4.07,0,0,1,3.13,2,9.46,9.46,0,0,1,1.07,2.54q1.16,4.13,2.27,8.26A6.33,6.33,0,0,1,295.44,89c-1.13.88-1.36,4-.47,5.14a2.89,2.89,0,0,0,1,.71,6.93,6.93,0,0,0,2.81.62l18.42,0c1.61,0,3.23.06,4.84,0A3.59,3.59,0,0,0,324.9,89.67Zm-35-31.37H268c-.18-.51.12-.86.26-1.23q5-12.37,9.91-24.73a5.2,5.2,0,0,1,.32-.77.79.79,0,0,1,1.27-.06,2.57,2.57,0,0,1,.28.63q4.91,12.68,9.79,25.37A.94.94,0,0,1,289.91,58.3Z" transform="translate(-18.17 -10.15)"/><path class="cls-1" d="M207.75,78.86a167.11,167.11,0,0,0,11.66-29.1c1.62-5.52,3.3-11,5-16.54a28.32,28.32,0,0,0,1-5.7,5.89,5.89,0,0,0-3-5.94c-1-.6-2-1.1-3-1.72a4.14,4.14,0,0,1-1.88-4.43,3.16,3.16,0,0,1,3.37-3c1.48-.06,2.95-.06,4.43-.06,4.53,0,9,.08,13.57,0a4.78,4.78,0,0,1,4.37,3.58,3,3,0,0,1-.73,3c-3.7,3.41-5.16,7.88-6.14,12.58-.91,4.36-2.58,8.46-4,12.64-3.17,9.24-6.23,18.51-9.68,27.66A93.24,93.24,0,0,1,218,82.22q-2.37,4.55-4.76,9.06a11.82,11.82,0,0,1-7,6.11c-4.33,1.33-8.19.25-11.65-2.53a16.08,16.08,0,0,1-4-5.09,185.86,185.86,0,0,1-13.3-32.14c-3.05-9.77-5.68-19.65-8.58-29.46-.19-.62-.41-1.23-.55-1.85a10.69,10.69,0,0,0-2.73-4.9c-.68-.75-1.37-1.5-2-2.3a4.75,4.75,0,0,1-.85-4.07,3,3,0,0,1,3.07-2.64c1.66-.07,3.32,0,5,0l19.11.06a7.09,7.09,0,0,1,3.68,1,2.18,2.18,0,0,1,1.12,1.65,8.59,8.59,0,0,1-.24,3.42A2.65,2.65,0,0,1,193,20.15a6.18,6.18,0,0,0-3.27,6.11,15.26,15.26,0,0,0,.27,2.33c1.08,4.86,2.35,9.67,3.69,14.46A185.66,185.66,0,0,0,205,74c.56,1.16,1.14,2.31,1.74,3.46A4.18,4.18,0,0,0,207.75,78.86Z" transform="translate(-18.17 -10.15)"/><path class="cls-1" d="M18.84,26.79c.63.12.62.68.79,1.07,2.48,5.75,4.81,11.58,7.43,17.27,9.39,20.4,17.83,41.19,26.78,61.78.09.21.18.42.26.64a2.9,2.9,0,0,1-.55,3.19q-8.62,9.93-17.17,19.93Q28.57,139.82,20.8,149a14.54,14.54,0,0,0-1.09,1.6c-.13.2-.25.47-.49.4a.92.92,0,0,1-.48-.47,1.61,1.61,0,0,1-.11-.66c0-.32,0-.65,0-1q0-60.21,0-120.42C18.63,27.94,18.44,27.32,18.84,26.79Z" transform="translate(-18.17 -10.15)"/><path class="cls-1" d="M141.53,153.26c-.6-.07-.74-.46-1-.72q-17.2-20-34.4-40a1.58,1.58,0,0,1-.24-2q11.91-27.75,23.78-55.52Q135,42.76,140.28,30.44c.18-.42.19-1.2.8-1.12.8.12.43.91.43,1.39q0,60.75,0,121.5Z" transform="translate(-18.17 -10.15)"/><path class="cls-1" d="M187,129.57q0,10.17,0,20.34c0,.32,0,.65,0,1,.06.62-.24.79-.82.78-1.61,0-3.23,0-4.84,0-.62,0-.83-.24-.78-.82,0-.23,0-.46,0-.69v-32c0-1.46,0-1.47,1.45-1.54a49.32,49.32,0,0,1,6.08.06c1.69.14,2.38.67,2.78,2.34,1.31,5.37,2.58,10.75,3.87,16.12.15.63.27,1.27.46,1.88s0,1.3.74,1.28.52-.78.63-1.21c1.26-5.14,2.48-10.3,3.71-15.45.28-1.21.54-2.42.86-3.63.39-1.48.22-1.23,1.5-1.24,2.31,0,4.62,0,6.92,0,1.31,0,1.31,0,1.32,1.38v32c0,.18,0,.37,0,.55,0,1,0,1-1,1-1.34,0-2.68,0-4,0-.53,0-.76-.19-.72-.72,0-.32,0-.64,0-1,0-7.06,0-14.11,0-21.17,0-.43.25-1.17-.24-1.23-.71-.09-.5.74-.6,1.16-1.65,7.14-3.26,14.28-4.88,21.42-.36,1.6-.4,1.64-2,1.66-1,0-2,.06-3,0-1.49-.06-1.89-.39-2.15-1.81-1.16-6.31-2.75-12.51-4.47-18.68-.17-.62-.39-1.22-.59-1.84a.94.94,0,0,1-.11-.37A.63.63,0,0,1,187,129.57Z" transform="translate(-18.17 -10.15)"/><path class="cls-1" d="M332.53,136.34c.25-.4.66-.41,1-.53a8.19,8.19,0,0,0,5.17-5.72,16,16,0,0,0,.32-6.19,8.25,8.25,0,0,0-1.28-3.47,6.25,6.25,0,0,0-5.07-3.17c-1.06-.06-2.12-.16-3.17-.19-5-.12-10,0-15,0-1.62,0-1.47-.13-1.47,1.52v31.54c0,.28,0,.56,0,.84,0,.54.23.72.74.71,1.39,0,2.77,0,4.16,0,2.05,0,2.05,0,2.05-2,0-3.74,0-7.48,0-11.21,0-.58,0-1.06.77-1.19a5.51,5.51,0,0,1,6.11,2.8c1.22,2.06,2.5,4.08,3.57,6.24a15.16,15.16,0,0,0,2.29,3.44,6.75,6.75,0,0,0,4.51,2.45,9.46,9.46,0,0,0,4.61-.69Zm-3.88-5.13c-1.28.06-2.58,0-3.86,0v0c-1.3,0-2.58,0-3.88,0-.5,0-.75-.14-.75-.7q0-3.66,0-7.32c0-.46.17-.67.65-.67,2.67,0,5.35-.06,8,.07a4.3,4.3,0,0,1-.18,8.56Z" transform="translate(-18.17 -10.15)"/><path class="cls-1" d="M570.56,128.55a20.85,20.85,0,0,0-2-6.28,10.08,10.08,0,0,0-6.78-5.23,18,18,0,0,0-5.22-.51c-2.76.12-5.53.3-8.3.18-1.05,0-2.12,0-3.18-.08-.69,0-.91.23-.86.87a7.66,7.66,0,0,1,0,.83V137.7c0,4.33,0,8.67,0,13,0,1.15,0,1.15,1.13,1.17s2.21,0,3.32,0A99.82,99.82,0,0,0,560,151.7a10.11,10.11,0,0,0,8-4.85,20.94,20.94,0,0,0,2.48-5.82A28.56,28.56,0,0,0,570.56,128.55Zm-7.81,14.15a4.63,4.63,0,0,1-3.21,2.8,24.2,24.2,0,0,1-7.69.4c-.43,0-.53-.26-.52-.63s0-.65,0-1V123.71c0-1-.12-1.15,1.14-1.14a30.54,30.54,0,0,1,4.28,0,10.68,10.68,0,0,1,3.27,1,5.84,5.84,0,0,1,2.92,3.16A20.3,20.3,0,0,1,562.75,142.7Z" transform="translate(-18.17 -10.15)"/><path class="cls-1" d="M247,129.79a20.69,20.69,0,0,0-1.78-6.07c-3.16-6.69-10.29-8.88-15.91-7.91a13.69,13.69,0,0,0-11,8.68,25.26,25.26,0,0,0-1.95,9.87,22.12,22.12,0,0,0,.31,3.67,27.88,27.88,0,0,0,.6,3.26c1.59,6.51,6.14,10.53,12.73,11.3a15,15,0,0,0,16.83-12.21A31.91,31.91,0,0,0,247,129.79ZM238.84,142a8.35,8.35,0,0,1-9,4.16,6.76,6.76,0,0,1-4.61-3.86,38.59,38.59,0,0,1-1.69-5.38c-1-3.09-.37-6,.66-8.92a8.62,8.62,0,0,1,6.2-5.79,7.37,7.37,0,0,1,8.39,3.84,18.81,18.81,0,0,1,1.69,8.13A17.12,17.12,0,0,1,238.84,142Z" transform="translate(-18.17 -10.15)"/><path class="cls-1" d="M305.81,123.38a12.58,12.58,0,0,0-6.35-6.3c-7.33-3.46-17.62-1.15-21,9.08a28.65,28.65,0,0,0-1.14,8.78,26.43,26.43,0,0,0,.3,3.95,14.84,14.84,0,0,0,.53,2.57c1.48,5.16,4.49,8.95,9.82,10.49a18.32,18.32,0,0,0,8.77.14,12.17,12.17,0,0,0,8.85-6.84C309.23,138,309.08,130.68,305.81,123.38Zm-4.36,11.74c-.64,2.41-1,4.9-2.1,7.14a7.37,7.37,0,0,1-13,.61,16.42,16.42,0,0,1-1.5-14.48,20.8,20.8,0,0,1,1-2.28c1.46-3,3.39-4.17,6.71-4.14,4-.17,7.83,3.41,8.06,6.94.08,1.33.42,2.64.46,4C301.11,133.66,301.68,134.28,301.45,135.12Z" transform="translate(-18.17 -10.15)"/><path class="cls-1" d="M343,140.62c2.11-.27,4-.5,5.95-.77.58-.08.72.26.84.67a13.67,13.67,0,0,0,1.16,2.8c2.13,3.82,7.32,3.8,9.7,2a4,4,0,0,0,1.5-5,3.32,3.32,0,0,0-1.53-1.71,19.73,19.73,0,0,0-3.6-1.4,44.73,44.73,0,0,1-6.25-2.24,10.16,10.16,0,0,1-6-7.76A7.91,7.91,0,0,1,345,124a12.83,12.83,0,0,1,2.18-4.6,7.65,7.65,0,0,1,3.58-2.7,16.19,16.19,0,0,1,13.88,1.1,5.52,5.52,0,0,1,2,1.89,11.32,11.32,0,0,1,1.74,5.76c0,.66-.27.9-.87,1-1.46.17-2.93.35-4.39.55a.78.78,0,0,1-1-.53c-.16-.38-.35-.75-.54-1.12a6.5,6.5,0,0,0-7.86-3.2,4.36,4.36,0,0,0-2.14,1.47,2.4,2.4,0,0,0,.46,3.54,6.65,6.65,0,0,0,1.33.74,51.37,51.37,0,0,0,7.8,2.79c3.7,1,6.54,3.06,7.81,6.78,1.46,4.27.49,8.2-2.21,11.71a8.25,8.25,0,0,1-4.86,2.74,25.94,25.94,0,0,1-7.56.67,10,10,0,0,1-8.6-5.41A62.53,62.53,0,0,1,343,140.62Z" transform="translate(-18.17 -10.15)"/><path class="cls-1" d="M410.23,121.12a7.69,7.69,0,0,0-6.25-4.43,14.82,14.82,0,0,0-2.9-.11,76.44,76.44,0,0,1-8,0c-1.57,0-3.14,0-4.71,0-.57,0-.87.16-.82.78,0,.32,0,.65,0,1v20.61c0,3.87,0,7.75,0,11.61,0,1.08,0,1.09,1,1.1h4.15c1.14,0,1.15,0,1.15-1.13,0-3.08,0-6.17,0-9.26,0-.91-.4-2.09.18-2.67s1.83-.17,2.78-.18a32.59,32.59,0,0,0,6.62-.31c3.64-.76,6.35-2.67,7.6-6.29A12.92,12.92,0,0,0,410.23,121.12Zm-5.61,8a4.15,4.15,0,0,1-3.66,3.11,35.65,35.65,0,0,1-6.2.17c-.65,0-.85-.31-.83-.94,0-1.38,0-2.76,0-4.14s0-2.66,0-4c0-.52.19-.73.73-.74,2.11,0,4.23-.11,6.34,0a3.75,3.75,0,0,1,3.43,2.58A6.16,6.16,0,0,1,404.62,129.16Z" transform="translate(-18.17 -10.15)"/><path class="cls-1" d="M413.82,116.75c2,0,4.12,0,6.19,0,.63,0,.72.4.86.87.8,2.69,1.62,5.38,2.44,8.06q2.18,7.21,4.36,14.42c.13.42.14.92.67,1.21a1.88,1.88,0,0,0,.53-1.07q3.31-10.9,6.65-21.81c.11-.35.22-.7.32-1a.74.74,0,0,1,.79-.61c2.07,0,4.15,0,6.21,0a2,2,0,0,1-.23,1.39q-5,15.74-10.1,31.45a6.66,6.66,0,0,1-.44,1.15,1.94,1.94,0,0,1-1.89,1.16c-1-.07-2,0-3.05.05a3.11,3.11,0,0,1-3.09-1.91,8.51,8.51,0,0,1-.61-1.54c-1.94-7.54-4.58-14.87-6.93-22.29-.88-2.77-1.7-5.55-2.53-8.33A1.68,1.68,0,0,1,413.82,116.75Z" transform="translate(-18.17 -10.15)"/><path class="cls-1" d="M266.3,137.16c0,4.47,0,8.94,0,13.41,0,1.11,0,1.12-1.14,1.13-1.62,0-3.23,0-4.85,0-.65,0-.95-.19-.89-.86,0-.32,0-.65,0-1V124.43a7.67,7.67,0,0,1,0-1c.08-.75-.27-.93-1-.92-2.31,0-4.62,0-6.92,0-1.05,0-1.06,0-1.07-1.08,0-1.29,0-2.58,0-3.87,0-.59.2-.85.8-.8.27,0,.55,0,.83,0h22.42c.38,0,.61.14.61.55,0,1.48,0,3,0,4.43,0,.41-.2.57-.59.56h-6.65c-1.69,0-1.59-.21-1.59,1.53Z" transform="translate(-18.17 -10.15)"/><path class="cls-1" d="M531,137.14c0,4.47,0,9,0,13.42,0,1.12,0,1.13-1.14,1.14-1.48,0-3,0-4.44,0-1,0-1,0-1-1,0-3.23,0-6.46,0-9.69V124.37c0-.32,0-.64,0-1,0-.64-.27-.78-.84-.77-1.38,0-2.77,0-4.15,0s-2.49,0-3.74,0c-.53,0-.73-.2-.72-.73q0-2.15,0-4.29c0-.57.15-.87.78-.82.46,0,.92,0,1.38,0h21.47c.32,0,.65,0,1,0,.53,0,.75.2.74.73,0,1.38,0,2.77,0,4.15,0,.69-.3.85-.92.84-2.4,0-4.81,0-7.21,0-1.2,0-1.21,0-1.21,1.18Q531,130.43,531,137.14Z" transform="translate(-18.17 -10.15)"/><path class="cls-1" d="M460.45,137.14c0,4.47,0,8.94,0,13.41,0,1.13,0,1.14-1.12,1.15-1.52,0-3,0-4.56,0-.61,0-.84-.22-.79-.81,0-.32,0-.64,0-1v-26c0-1.3,0-1.31-1.26-1.31H445.8c-1.22,0-1.25.12-1.24-1.17s0-2.58,0-3.87c0-.58.19-.83.8-.81,1.11,0,2.21,0,3.32,0H468.6c.46,0,.66.19.65.66,0,1.47,0,3,0,4.42,0,.7-.42.69-.92.69-2.21,0-4.42,0-6.64,0-1.24,0-1.24,0-1.24,1.3Q460.45,130.51,460.45,137.14Z" transform="translate(-18.17 -10.15)"/><path class="cls-1" d="M493.6,134.21v-15.9c0-.32,0-.64,0-1s.19-.58.59-.58c1.66,0,3.32,0,5,0,.49,0,.65.22.63.67s0,.65,0,1V144c0,.27,0,.55,0,.83,0,1,0,1,1,1,1.48,0,3,0,4.43,0h8.85c1.65,0,1.45-.11,1.46,1.51,0,1.2,0,2.4,0,3.6,0,.53-.2.77-.73.72h-.27q-10,0-19.93,0c-1,0-1,0-1-1.14C493.59,145.09,493.6,139.65,493.6,134.21Z" transform="translate(-18.17 -10.15)"/><path class="cls-2" d="M468.75,148.23c0-.88,0-1.75,0-2.62,0-.47.19-.66.65-.66,1.43,0,2.85,0,4.28,0,.48,0,.64.21.64.67q0,2.69,0,5.37c0,.46-.17.67-.65.66-1.42,0-2.85,0-4.28,0-.48,0-.64-.22-.64-.67C468.75,150.06,468.75,149.15,468.75,148.23Z" transform="translate(-18.17 -10.15)"/><path class="cls-1" d="M576.47,148.32c0-.91,0-1.83,0-2.75,0-.39.15-.59.56-.58h4.55c.34,0,.49.18.49.51v5.65c0,.32-.15.52-.49.52H577c-.41,0-.56-.21-.56-.59C576.48,150.16,576.47,149.24,576.47,148.32Z" transform="translate(-18.17 -10.15)"/><path class="cls-3" d="M187,129.57c0-.15-.13-.36.14-.35.11,0,.1.21.05.34l-.09,0Z" transform="translate(-18.17 -10.15)"/></svg>